<svg width="330" height="139" viewBox="0 0 330 139" fill="none" xmlns="http://www.w3.org/2000/svg">
<g filter="url(#filter0_d_53_161)">
<rect x="147" y="18" width="14" height="5" rx="2.5" fill="#37928D"/>
<rect x="81" y="12" width="31" height="5" rx="2.5" fill="#37928D"/>
<rect x="78" y="120" width="31" height="5" rx="2.5" fill="#37928D"/>
<rect x="65" y="6" width="15" height="5" rx="2.5" fill="#37928D"/>
<rect x="72" width="15" height="5" rx="2.5" fill="#37928D"/>
<rect x="186" width="15" height="5" rx="2.5" fill="#37928D"/>
<rect x="243" width="15" height="5" rx="2.5" fill="#37928D"/>
<rect x="119" y="6" width="11" height="5" rx="2.5" fill="#37928D"/>
<rect x="131" y="6" width="13" height="5" rx="2.5" fill="#37928D"/>
<rect x="142" y="120" width="18" height="5" rx="2.5" fill="#37928D"/>
<rect x="169" y="6" width="5" height="5" rx="2.5" fill="#37928D"/>
<rect x="161" y="120" width="5" height="5" rx="2.5" fill="#37928D"/>
<rect x="167" y="120" width="13" height="5" rx="2.5" fill="#37928D"/>
<rect x="184" y="12" width="28" height="5" rx="2.5" fill="#37928D"/>
<rect x="196" y="18" width="7" height="5" rx="2.5" fill="#37928D"/>
<rect x="219" y="30" width="5" height="5" rx="2.5" fill="#37928D"/>
<rect x="210" y="30" width="8" height="5" rx="2.5" fill="#37928D"/>
<rect x="196" y="30" width="13" height="5" rx="2.5" fill="#37928D"/>
<rect x="196" y="36" width="5" height="5" rx="2.5" fill="#37928D"/>
<rect x="212" y="48" width="5" height="5" rx="2.5" fill="#37928D"/>
<rect x="196" y="54" width="20" height="5" rx="2.5" fill="#37928D"/>
<rect x="196" y="60" width="5" height="5" rx="2.5" fill="#37928D"/>
<rect x="167" y="48" width="5" height="5" rx="2.5" fill="#37928D"/>
<rect x="164" y="54" width="7" height="5" rx="2.5" fill="#37928D"/>
<rect x="157" y="66" width="5" height="5" rx="2.5" fill="#37928D"/>
<rect x="163" y="66" width="8" height="5" rx="2.5" fill="#37928D"/>
<rect x="154" y="72" width="17" height="5" rx="2.5" fill="#37928D"/>
<rect x="196" y="66" width="7" height="5" rx="2.5" fill="#37928D"/>
<rect x="204" y="66" width="11" height="5" rx="2.5" fill="#37928D"/>
<rect x="211" y="72" width="5" height="5" rx="2.5" fill="#37928D"/>
<rect x="206" y="78" width="11" height="5" rx="2.5" fill="#37928D"/>
<rect x="206" y="84" width="13" height="5" rx="2.5" fill="#37928D"/>
<rect x="206" y="90" width="5" height="5" rx="2.5" fill="#37928D"/>
<rect x="196" y="96" width="13" height="5" rx="2.5" fill="#37928D"/>
<rect x="196" y="102" width="5" height="5" rx="2.5" fill="#37928D"/>
<rect x="202" y="102" width="8" height="5" rx="2.5" fill="#37928D"/>
<rect x="220" y="108" width="21" height="5" rx="2.5" fill="#37928D"/>
<rect x="213" y="108" width="6" height="5" rx="2.5" fill="#37928D"/>
<rect x="217" y="96" width="9" height="5" rx="2.5" fill="#37928D"/>
<rect x="225" y="18" width="13" height="5" rx="2.5" fill="#37928D"/>
<rect x="222" y="6" width="5" height="5" rx="2.5" fill="#37928D"/>
<rect x="210" y="120" width="5" height="5" rx="2.5" fill="#37928D"/>
<rect x="220" y="126" width="8" height="5" rx="2.5" fill="#37928D"/>
<rect x="228" y="6" width="17" height="5" rx="2.5" fill="#37928D"/>
<rect x="235" y="12" width="7" height="5" rx="2.5" fill="#37928D"/>
<rect x="232" y="120" width="7" height="5" rx="2.5" fill="#37928D"/>
<rect x="261" y="12" width="8" height="5" rx="2.5" fill="#37928D"/>
<rect x="258" y="120" width="8" height="5" rx="2.5" fill="#37928D"/>
<rect x="290" y="12" width="8" height="5" rx="2.5" fill="#37928D"/>
<rect x="287" y="120" width="11" height="5" rx="2.5" fill="#37928D"/>
<rect x="284" y="18" width="7" height="5" rx="2.5" fill="#37928D"/>
<rect x="260" y="42" width="12" height="5" rx="2.5" fill="#37928D"/>
<rect x="249" y="42" width="10" height="5" rx="2.5" fill="#37928D"/>
<rect x="245" y="48" width="5" height="5" rx="2.5" fill="#37928D"/>
<rect x="251" y="48" width="10" height="5" rx="2.5" fill="#37928D"/>
<rect x="262" y="48" width="15" height="5" rx="2.5" fill="#37928D"/>
<rect x="270" y="54" width="11" height="5" rx="2.5" fill="#37928D"/>
<rect x="264" y="54" width="5" height="5" rx="2.5" fill="#37928D"/>
<rect x="242" y="60" width="7" height="5" rx="2.5" fill="#37928D"/>
<rect x="244" y="72" width="7" height="5" rx="2.5" fill="#37928D"/>
<rect x="252" y="72" width="18" height="5" rx="2.5" fill="#37928D"/>
<rect x="269" y="78" width="7" height="5" rx="2.5" fill="#37928D"/>
<rect x="253" y="78" width="15" height="5" rx="2.5" fill="#37928D"/>
<rect x="267" y="84" width="5" height="5" rx="2.5" fill="#37928D"/>
<rect x="247" y="78" width="5" height="5" rx="2.5" fill="#37928D"/>
<rect x="256" y="66" width="8" height="5" rx="2.5" fill="#37928D"/>
<rect x="265" y="66" width="6" height="5" rx="2.5" fill="#37928D"/>
<rect x="302" y="66" width="8" height="5" rx="2.5" fill="#37928D"/>
<rect x="271" y="72" width="11" height="5" rx="2.5" fill="#37928D"/>
<rect x="283" y="72" width="5" height="5" rx="2.5" fill="#37928D"/>
<rect x="303" y="72" width="5" height="5" rx="2.5" fill="#37928D"/>
<rect x="309" y="72" width="17" height="5" rx="2.5" fill="#37928D"/>
<rect x="302" y="84" width="6" height="5" rx="2.5" fill="#37928D"/>
<rect x="290" y="102" width="9" height="5" rx="2.5" fill="#37928D"/>
<rect x="316" y="102" width="9" height="5" rx="2.5" fill="#37928D"/>
<rect x="295" y="108" width="11" height="5" rx="2.5" fill="#37928D"/>
<rect x="313" y="90" width="13" height="5" rx="2.5" fill="#37928D"/>
<rect x="309" y="84" width="17" height="5" rx="2.5" fill="#37928D"/>
<rect x="250" y="60" width="12" height="5" rx="2.5" fill="#37928D"/>
<rect x="304" y="60" width="7" height="5" rx="2.5" fill="#37928D"/>
<rect x="312" y="60" width="14" height="5" rx="2.5" fill="#37928D"/>
<rect x="306" y="36" width="12" height="5" rx="2.5" fill="#37928D"/>
<rect x="319" y="54" width="7" height="5" rx="2.5" fill="#37928D"/>
<rect x="292" y="18" width="11" height="5" rx="2.5" fill="#37928D"/>
<rect x="32" y="18" width="17" height="5" rx="2.5" fill="#37928D"/>
<rect x="18" y="30" width="18" height="5" rx="2.5" fill="#37928D"/>
<rect x="4" y="42" width="8" height="5" rx="2.5" fill="#37928D"/>
<rect x="25" y="42" width="5" height="5" rx="2.5" fill="#37928D"/>
<rect x="4" y="30" width="13" height="5" rx="2.5" fill="#37928D"/>
<rect x="4" y="54" width="17" height="5" rx="2.5" fill="#37928D"/>
<rect x="4" y="60" width="5" height="5" rx="2.5" fill="#37928D"/>
<rect x="150" y="108" width="10" height="5" rx="2.5" fill="#37928D"/>
<rect x="161" y="108" width="10" height="5" rx="2.5" fill="#37928D"/>
<rect x="117" y="114" width="7" height="5" rx="2.5" fill="#37928D"/>
<rect x="175" y="126" width="28" height="5" rx="2.5" fill="#37928D"/>
<rect x="156" y="114" width="5" height="5" rx="2.5" fill="#37928D"/>
<rect x="204" y="126" width="15" height="5" rx="2.5" fill="#37928D"/>
<rect x="239" y="114" width="5" height="5" rx="2.5" fill="#37928D"/>
<rect x="261" y="114" width="6" height="5" rx="2.5" fill="#37928D"/>
<rect x="293" y="114" width="27" height="5" rx="2.5" fill="#37928D"/>
<rect x="103" y="60" width="7" height="5" rx="2.5" fill="#37928D"/>
<rect x="114" y="84" width="5" height="5" rx="2.5" fill="#37928D"/>
<rect x="108" y="96" width="14" height="5" rx="2.5" fill="#37928D"/>
<rect x="123" y="96" width="6" height="5" rx="2.5" fill="#37928D"/>
<rect x="131" y="96" width="14" height="5" rx="2.5" fill="#37928D"/>
<rect x="120" y="84" width="5" height="5" rx="2.5" fill="#37928D"/>
<rect x="116" y="72" width="10" height="5" rx="2.5" fill="#37928D"/>
<rect x="89" y="72" width="5" height="5" rx="2.5" fill="#37928D"/>
<rect x="83" y="48" width="5" height="5" rx="2.5" fill="#37928D"/>
<rect x="4" y="90" width="21" height="5" rx="2.5" fill="#37928D"/>
<rect x="4" y="96" width="16" height="5" rx="2.5" fill="#37928D"/>
<rect x="77" y="78" width="11" height="5" rx="2.5" fill="#37928D"/>
<rect x="71" y="84" width="11" height="5" rx="2.5" fill="#37928D"/>
<rect x="66" y="114" width="11" height="5" rx="2.5" fill="#37928D"/>
<rect x="108" y="66" width="22" height="5" rx="2.5" fill="#37928D"/>
<rect x="123" y="54" width="9" height="5" rx="2.5" fill="#37928D"/>
<rect x="65" y="48" width="17" height="5" rx="2.5" fill="#37928D"/>
<rect x="98" y="54" width="24" height="5" rx="2.5" fill="#37928D"/>
<rect x="124" y="42" width="22" height="5" rx="2.5" fill="#37928D"/>
<rect x="58" y="78" width="12" height="5" rx="2.5" fill="#37928D"/>
<rect x="55" y="54" width="9" height="5" rx="2.5" fill="#37928D"/>
<rect x="267" y="120" width="19" height="5" rx="2.5" fill="#37928D"/>
<rect x="276" y="126" width="23" height="5" rx="2.5" fill="#37928D"/>
<rect x="303" y="78" width="8" height="5" rx="2.5" fill="#37928D"/>
<rect x="110" y="120" width="31" height="5" rx="2.5" fill="#37928D"/>
<rect x="243" y="66" width="12" height="5" rx="2.5" fill="#37928D"/>
<rect x="250" y="84" width="16" height="5" rx="2.5" fill="#37928D"/>
<rect x="272" y="66" width="17" height="5" rx="2.5" fill="#37928D"/>
<rect x="289" y="72" width="13" height="5" rx="2.5" fill="#37928D"/>
<rect x="276" y="60" width="6" height="5" rx="2.5" fill="#37928D"/>
<rect x="205" y="114" width="33" height="5" rx="2.5" fill="#37928D"/>
<rect x="128" y="126" width="33" height="5" rx="2.5" fill="#37928D"/>
<rect x="4" y="66" width="9" height="5" rx="2.5" fill="#37928D"/>
<rect x="14" y="66" width="13" height="5" rx="2.5" fill="#37928D"/>
<rect x="23" y="72" width="5" height="5" rx="2.5" fill="#37928D"/>
<rect x="13" y="78" width="16" height="5" rx="2.5" fill="#37928D"/>
<rect x="10" y="84" width="20" height="5" rx="2.5" fill="#37928D"/>
<rect x="4" y="114" width="5" height="5" rx="2.5" fill="#37928D"/>
<rect x="48" y="108" width="5" height="5" rx="2.5" fill="#37928D"/>
<rect x="22" y="114" width="21" height="5" rx="2.5" fill="#37928D"/>
<rect x="13" y="120" width="21" height="5" rx="2.5" fill="#37928D"/>
<rect x="44" y="114" width="14" height="5" rx="2.5" fill="#37928D"/>
<rect x="34" y="108" width="13" height="5" rx="2.5" fill="#37928D"/>
<rect x="4" y="108" width="15" height="5" rx="2.5" fill="#37928D"/>
<rect x="28" y="108" width="5" height="5" rx="2.5" fill="#37928D"/>
<rect x="4" y="102" width="9" height="5" rx="2.5" fill="#37928D"/>
<rect x="41" y="12" width="7" height="5" rx="2.5" fill="#37928D"/>
<rect x="4" y="12" width="24" height="5" rx="2.5" fill="#37928D"/>
<rect x="14" y="18" width="17" height="5" rx="2.5" fill="#37928D"/>
<rect x="118" y="24" width="39" height="5" rx="2.5" fill="#37928D"/>
<rect x="108" y="30" width="5" height="5" rx="2.5" fill="#37928D"/>
<rect x="140" y="36" width="9" height="5" rx="2.5" fill="#37928D"/>
<rect x="114" y="42" width="9" height="5" rx="2.5" fill="#37928D"/>
<rect x="133" y="54" width="5" height="5" rx="2.5" fill="#37928D"/>
<rect x="88" y="54" width="9" height="5" rx="2.5" fill="#37928D"/>
<rect x="54" y="66" width="6" height="5" rx="2.5" fill="#37928D"/>
<rect x="55" y="72" width="15" height="5" rx="2.5" fill="#37928D"/>
<rect x="71" y="72" width="17" height="5" rx="2.5" fill="#37928D"/>
<rect x="65" y="84" width="5" height="5" rx="2.5" fill="#37928D"/>
<rect x="78" y="114" width="5" height="5" rx="2.5" fill="#37928D"/>
<rect x="94" y="108" width="7" height="5" rx="2.5" fill="#37928D"/>
<rect x="102" y="102" width="9" height="5" rx="2.5" fill="#37928D"/>
<rect x="128" y="102" width="10" height="5" rx="2.5" fill="#37928D"/>
<rect x="140" y="102" width="5" height="5" rx="2.5" fill="#37928D"/>
<rect x="146" y="102" width="24" height="5" rx="2.5" fill="#37928D"/>
<rect x="117" y="108" width="5" height="5" rx="2.5" fill="#37928D"/>
<rect x="123" y="108" width="26" height="5" rx="2.5" fill="#37928D"/>
<rect x="49" y="12" width="31" height="5" rx="2.5" fill="#37928D"/>
<rect x="4" y="72" width="18" height="5" rx="2.5" fill="#37928D"/>
<rect x="26" y="90" width="8" height="5" rx="2.5" fill="#37928D"/>
<rect x="26" y="102" width="17" height="5" rx="2.5" fill="#37928D"/>
<rect x="59" y="114" width="5" height="5" rx="2.5" fill="#37928D"/>
<rect x="114" y="30" width="9" height="5" rx="2.5" fill="#37928D"/>
<rect x="84" y="114" width="19" height="5" rx="2.5" fill="#37928D"/>
<rect x="73" y="60" width="7" height="5" rx="2.5" fill="#37928D"/>
<rect x="78" y="66" width="29" height="5" rx="2.5" fill="#37928D"/>
<rect x="63" y="42" width="20" height="5" rx="2.5" fill="#37928D"/>
<rect x="59" y="48" width="5" height="5" rx="2.5" fill="#37928D"/>
<rect x="88" width="11" height="5" rx="2.5" fill="#37928D"/>
<rect x="145" width="11" height="5" rx="2.5" fill="#37928D"/>
<rect x="202" width="11" height="5" rx="2.5" fill="#37928D"/>
<rect x="259" width="11" height="5" rx="2.5" fill="#37928D"/>
<rect x="99" y="6" width="13" height="5" rx="2.5" fill="#37928D"/>
<rect x="106" width="13" height="5" rx="2.5" fill="#37928D"/>
<rect x="163" width="13" height="5" rx="2.5" fill="#37928D"/>
<rect x="220" width="13" height="5" rx="2.5" fill="#37928D"/>
<rect x="277" width="13" height="5" rx="2.5" fill="#37928D"/>
<rect x="56" y="6" width="8" height="5" rx="2.5" fill="#37928D"/>
<rect x="38" width="12" height="5" rx="2.5" fill="#37928D"/>
<rect x="17" width="20" height="5" rx="2.5" fill="#37928D"/>
<rect x="4" width="12" height="5" rx="2.5" fill="#37928D"/>
<rect x="63" width="8" height="5" rx="2.5" fill="#37928D"/>
<rect x="120" width="8" height="5" rx="2.5" fill="#37928D"/>
<rect x="177" width="8" height="5" rx="2.5" fill="#37928D"/>
<rect x="234" width="8" height="5" rx="2.5" fill="#37928D"/>
<rect x="113" y="12" width="31" height="5" rx="2.5" fill="#37928D"/>
<rect x="113" y="6" width="5" height="5" rx="2.5" fill="#37928D"/>
<rect x="164" y="12" width="5" height="5" rx="2.5" fill="#37928D"/>
<rect x="170" y="12" width="13" height="5" rx="2.5" fill="#37928D"/>
<rect x="209" y="24" width="21" height="5" rx="2.5" fill="#37928D"/>
<rect x="196" y="72" width="14" height="5" rx="2.5" fill="#37928D"/>
<rect x="210" y="96" width="6" height="5" rx="2.5" fill="#37928D"/>
<rect x="246" y="6" width="5" height="5" rx="2.5" fill="#37928D"/>
<rect x="278" y="6" width="24" height="5" rx="2.5" fill="#37928D"/>
<rect x="309" y="24" width="16" height="5" rx="2.5" fill="#37928D"/>
<rect x="298" y="30" width="16" height="5" rx="2.5" fill="#37928D"/>
<rect x="282" y="54" width="15" height="5" rx="2.5" fill="#37928D"/>
<rect x="93" y="6" width="5" height="5" rx="2.5" fill="#37928D"/>
<rect x="100" width="5" height="5" rx="2.5" fill="#37928D"/>
<rect x="157" width="5" height="5" rx="2.5" fill="#37928D"/>
<rect x="214" width="5" height="5" rx="2.5" fill="#37928D"/>
<rect x="271" width="5" height="5" rx="2.5" fill="#37928D"/>
<rect x="46" y="120" width="31" height="5" rx="2.5" fill="#37928D"/>
<rect x="18" y="126" width="31" height="5" rx="2.5" fill="#37928D"/>
<rect x="82" y="126" width="11" height="5" rx="2.5" fill="#37928D"/>
<rect x="145" y="12" width="18" height="5" rx="2.5" fill="#37928D"/>
<rect x="196" y="24" width="12" height="5" rx="2.5" fill="#37928D"/>
<rect x="202" y="36" width="19" height="5" rx="2.5" fill="#37928D"/>
<rect x="208" y="42" width="10" height="5" rx="2.5" fill="#37928D"/>
<rect x="196" y="48" width="15" height="5" rx="2.5" fill="#37928D"/>
<rect x="161" y="60" width="10" height="5" rx="2.5" fill="#37928D"/>
<rect x="240" y="120" width="17" height="5" rx="2.5" fill="#37928D"/>
<rect x="300" y="36" width="5" height="5" rx="2.5" fill="#37928D"/>
<rect x="298" y="54" width="5" height="5" rx="2.5" fill="#37928D"/>
<rect x="316" y="42" width="10" height="5" rx="2.5" fill="#37928D"/>
<rect x="315" y="30" width="11" height="5" rx="2.5" fill="#37928D"/>
<rect x="304" y="48" width="5" height="5" rx="2.5" fill="#37928D"/>
<rect x="22" y="24" width="9" height="5" rx="2.5" fill="#37928D"/>
<rect x="22" y="54" width="5" height="5" rx="2.5" fill="#37928D"/>
<rect x="4" y="36" width="6" height="5" rx="2.5" fill="#37928D"/>
<rect x="196" y="42" width="11" height="5" rx="2.5" fill="#E3C699"/>
<rect x="202" y="60" width="13" height="5" rx="2.5" fill="#E3C699"/>
<rect x="204" y="18" width="20" height="5" rx="2.5" fill="#E3C699"/>
<rect x="263" y="60" width="12" height="5" rx="2.5" fill="#E3C699"/>
<rect x="304" y="54" width="14" height="5" rx="2.5" fill="#E3C699"/>
<rect x="4" y="48" width="24" height="5" rx="2.5" fill="#E3C699"/>
<rect x="81" y="60" width="21" height="5" rx="2.5" fill="#E3C699"/>
<rect x="95" y="72" width="14" height="5" rx="2.5" fill="#E3C699"/>
<rect x="21" y="96" width="17" height="5" rx="2.5" fill="#E3C699"/>
<rect x="4" y="84" width="5" height="5" rx="2.5" fill="#E3C699"/>
<rect x="20" y="108" width="7" height="5" rx="2.5" fill="#E3C699"/>
<rect x="35" y="120" width="10" height="5" rx="2.5" fill="#E3C699"/>
<rect x="4" y="126" width="13" height="5" rx="2.5" fill="#E3C699"/>
<rect x="96" y="18" width="50" height="5" rx="2.5" fill="#E3C699"/>
<rect x="296" y="96" width="20" height="5" rx="2.5" fill="#E3C699"/>
<rect x="281" y="108" width="13" height="5" rx="2.5" fill="#E3C699"/>
<rect x="268" y="114" width="18" height="5" rx="2.5" fill="#E3C699"/>
<rect x="300" y="126" width="8" height="5" rx="2.5" fill="#E3C699"/>
<rect x="263" y="126" width="12" height="5" rx="2.5" fill="#E3C699"/>
<rect x="124" y="30" width="29" height="5" rx="2.5" fill="#E3C699"/>
<rect x="54" y="60" width="18" height="5" rx="2.5" fill="#E3C699"/>
<rect x="10" y="60" width="17" height="5" rx="2.5" fill="#E3C699"/>
<rect x="244" y="54" width="19" height="5" rx="2.5" fill="#E3C699"/>
<rect x="162" y="114" width="8" height="5" rx="2.5" fill="#E3C699"/>
<rect x="245" y="114" width="15" height="5" rx="2.5" fill="#E3C699"/>
<rect x="145" y="6" width="23" height="5" rx="2.5" fill="#E3C699"/>
<rect x="212" y="90" width="10" height="5" rx="2.5" fill="#E3C699"/>
<rect x="196" y="108" width="16" height="5" rx="2.5" fill="#E3C699"/>
<rect x="125" y="114" width="30" height="5" rx="2.5" fill="#E3C699"/>
<rect x="111" y="90" width="14" height="5" rx="2.5" fill="#E3C699"/>
<rect x="102" y="108" width="14" height="5" rx="2.5" fill="#E3C699"/>
<rect x="146" y="96" width="24" height="5" rx="2.5" fill="#E3C699"/>
<rect x="112" y="102" width="15" height="5" rx="2.5" fill="#E3C699"/>
<rect x="211" y="102" width="21" height="5" rx="2.5" fill="#E3C699"/>
<rect x="312" y="78" width="14" height="5" rx="2.5" fill="#E3C699"/>
<rect x="311" y="66" width="15" height="5" rx="2.5" fill="#E3C699"/>
<rect x="290" y="66" width="11" height="5" rx="2.5" fill="#E3C699"/>
<rect x="115" y="48" width="27" height="5" rx="2.5" fill="#E3C699"/>
<rect x="129" width="15" height="5" rx="2.5" fill="#E3C699"/>
<rect x="252" y="6" width="25" height="5" rx="2.5" fill="#E3C699"/>
<rect x="292" y="24" width="16" height="5" rx="2.5" fill="#E3C699"/>
<rect x="81" y="6" width="11" height="5" rx="2.5" fill="#E3C699"/>
<rect x="51" width="11" height="5" rx="2.5" fill="#E3C699"/>
<rect x="193" y="6" width="12" height="5" rx="2.5" fill="#E3C699"/>
<rect x="206" y="6" width="15" height="5" rx="2.5" fill="#E3C699"/>
<rect x="283" y="60" width="20" height="5" rx="2.5" fill="#E3C699"/>
<rect x="303" y="42" width="12" height="5" rx="2.5" fill="#E3C699"/>
<rect x="304" y="18" width="12" height="5" rx="2.5" fill="#E3C699"/>
<rect x="303" y="6" width="13" height="5" rx="2.5" fill="#E3C699"/>
<rect x="11" y="36" width="21" height="5" rx="2.5" fill="#E3C699"/>
<rect x="4" y="24" width="17" height="5" rx="2.5" fill="#E3C699"/>
<rect x="29" y="12" width="11" height="5" rx="2.5" fill="#E3C699"/>
<rect x="4" y="6" width="17" height="5" rx="2.5" fill="#E3C699"/>
<rect x="219" y="12" width="15" height="5" rx="2.5" fill="#E3C699"/>
<rect x="299" y="90" width="13" height="5" rx="2.5" fill="#A4D3AE"/>
<rect x="317" y="96" width="9" height="5" rx="2.5" fill="#A4D3AE"/>
<rect x="300" y="102" width="15" height="5" rx="2.5" fill="#A4D3AE"/>
<rect x="307" y="108" width="16" height="5" rx="2.5" fill="#A4D3AE"/>
<rect x="287" y="114" width="5" height="5" rx="2.5" fill="#A4D3AE"/>
<rect x="299" y="120" width="16" height="5" rx="2.5" fill="#A4D3AE"/>
<rect x="32" y="24" width="9" height="5" rx="2.5" fill="#A4D3AE"/>
<rect x="4" y="18" width="9" height="5" rx="2.5" fill="#A4D3AE"/>
<rect x="42" y="6" width="13" height="5" rx="2.5" fill="#A4D3AE"/>
<rect x="22" y="6" width="19" height="5" rx="2.5" fill="#A4D3AE"/>
<rect x="110" y="72" width="5" height="5" rx="2.5" fill="#A4D3AE"/>
<rect x="104" y="24" width="13" height="5" rx="2.5" fill="#A4D3AE"/>
<rect x="4" y="78" width="8" height="5" rx="2.5" fill="#A4D3AE"/>
<rect x="71" y="78" width="5" height="5" rx="2.5" fill="#A4D3AE"/>
<rect x="65" y="54" width="22" height="5" rx="2.5" fill="#A4D3AE"/>
<rect x="213" y="12" width="5" height="5" rx="2.5" fill="#A4D3AE"/>
<rect x="104" y="114" width="12" height="5" rx="2.5" fill="#A4D3AE"/>
<rect x="162" y="126" width="12" height="5" rx="2.5" fill="#A4D3AE"/>
<rect x="175" y="6" width="17" height="5" rx="2.5" fill="#A4D3AE"/>
<rect x="243" y="12" width="17" height="5" rx="2.5" fill="#A4D3AE"/>
<rect x="270" y="12" width="19" height="5" rx="2.5" fill="#A4D3AE"/>
<rect x="299" y="12" width="22" height="5" rx="2.5" fill="#A4D3AE"/>
<rect x="291" width="16" height="5" rx="2.5" fill="#A4D3AE"/>
<rect x="310" y="48" width="16" height="5" rx="2.5" fill="#A4D3AE"/>
<rect x="317" y="18" width="7" height="5" rx="2.5" fill="#A4D3AE"/>
<rect x="319" y="36" width="7" height="5" rx="2.5" fill="#A4D3AE"/>
<rect x="171" y="114" width="33" height="5" rx="2.5" fill="#A4D3AE"/>
<rect x="229" y="126" width="33" height="5" rx="2.5" fill="#A4D3AE"/>
<rect x="94" y="126" width="33" height="5" rx="2.5" fill="#A4D3AE"/>
<rect x="111" y="60" width="23" height="5" rx="2.5" fill="#A4D3AE"/>
<rect x="115" y="78" width="10" height="5" rx="2.5" fill="#A4D3AE"/>
<rect x="112" y="36" width="27" height="5" rx="2.5" fill="#A4D3AE"/>
<rect x="61" y="66" width="16" height="5" rx="2.5" fill="#A4D3AE"/>
<rect x="13" y="42" width="11" height="5" rx="2.5" fill="#A4D3AE"/>
<rect x="216" y="120" width="15" height="5" rx="2.5" fill="#A4D3AE"/>
<rect x="50" y="126" width="31" height="5" rx="2.5" fill="#A4D3AE"/>
<rect x="14" y="102" width="11" height="5" rx="2.5" fill="#A4D3AE"/>
<rect x="10" y="114" width="11" height="5" rx="2.5" fill="#A4D3AE"/>
<rect x="4" y="120" width="8" height="5" rx="2.5" fill="#A4D3AE"/>
<rect x="181" y="120" width="28" height="5" rx="2.5" fill="#A4D3AE"/>
</g>
<defs>
<filter id="filter0_d_53_161" x="0" y="0" width="330" height="139" filterUnits="userSpaceOnUse" color-interpolation-filters="sRGB">
<feFlood flood-opacity="0" result="BackgroundImageFix"/>
<feColorMatrix in="SourceAlpha" type="matrix" values="0 0 0 0 0 0 0 0 0 0 0 0 0 0 0 0 0 0 127 0" result="hardAlpha"/>
<feOffset dy="4"/>
<feGaussianBlur stdDeviation="2"/>
<feComposite in2="hardAlpha" operator="out"/>
<feColorMatrix type="matrix" values="0 0 0 0 0 0 0 0 0 0 0 0 0 0 0 0 0 0 0.25 0"/>
<feBlend mode="normal" in2="BackgroundImageFix" result="effect1_dropShadow_53_161"/>
<feBlend mode="normal" in="SourceGraphic" in2="effect1_dropShadow_53_161" result="shape"/>
</filter>
</defs>
</svg>
